<svg xmlns="http://www.w3.org/2000/svg" viewBox="0 0 643.63 139.92"><defs><style>.cls-1{fill:#f7f8ca;}</style></defs><g id="Слой_2" data-name="Слой 2"><g id="Слой_1-2" data-name="Слой 1"><path class="cls-1" d="M484.64,38.65c4.73,7,4,14.11,1.71,21.34a77,77,0,0,1-13.11,24.52,52,52,0,0,1-9.52,9c-5,3.77-10.51,1.92-12.84-3.83A15.45,15.45,0,0,1,450.23,79c2.85-9.91,8.16-18.35,14.55-26.22,2.29-2.82,3.41-3,6.15-1.55a22.32,22.32,0,0,1,2.76-1.79,24.21,24.21,0,0,1,3.54-1l1.82,4.22C471.76,64,462.76,74,459.07,86.94c-.3,1.07.06,2.33.18,4.86,3-3.31,5.52-5.44,7.18-8.12,5.3-8.52,10.64-17.05,15.22-26C484.8,51.61,485,45,480,38.93c-6.6.86-13.24,1.94-19.93,2.51a39.25,39.25,0,0,1-11.41-.51c-4.63-1-6.12-5.26-3.86-9.74,7.78,9.84,17.4,5,26.57,4l.17-1.55-23.95-2,2.26-3.44-3.1-.36-.28-1.12c1.16-.45,2.38-1.42,3.46-1.28,7.58,1,15.19,2,22.67,3.49,2,.41,3.6,2.75,5.81,4.55l29.19-7c0-.27.17-1.09.32-2.07,13.09-3.67,26.17-2.55,38.74,1.87,4.22,1.48,7.37,6,11.29,9.38-2.87,2.93-5.54,2-7.76,1.31-21.47-6.63-42.74-2.75-64,1A10.38,10.38,0,0,0,484.64,38.65Z"/><path class="cls-1" d="M382.08,39c6.57,3,9.43,9.59,6.36,16.84q-8.56,20.19-18.06,40a34.37,34.37,0,0,1-17.08,16.45,15.24,15.24,0,0,0-3.78,2.19c-7.3,6.54-15.73,7-24.72,4.84-11.08-2.67-18.18-10.31-18.65-20.21-.59-12,6.5-22.91,17.77-26.65-2.83,4.3-5.41,8.21-8,12.11C320,81,322.6,76.14,328.47,72.84c-2.06,5.09-4.22,9-5.17,13.17-1.09,4.73.18,9.46,2.59,13.74a18.78,18.78,0,0,0,10.2,8.72c4.3,1.54,8.68,2.86,14.27,1.19,3.86-8.48,8.31-17.28,11.85-26.43,2-5.06,14.89-34.58,20-44.29Z"/><path class="cls-1" d="M382.24,38.94c-16.59,4.66-32.63,10.45-47.05,22.34,1.05-6.48,5-10.6,8.7-15.69-6.7,3.46-8.05,10-12.44,14.63-.1-1.15-.54-2.4-.26-3.44,1.77-6.43,4.52-12.36,9.38-17.08a11.23,11.23,0,0,1,3-2.28C360.7,29.49,378.84,25.57,397.53,24c10.53-.86,21.1-1.45,31.67-1.87,5.14-.2,10.25,0,14.84-3.52l-2.16,4.12,1.49,1.35a6.68,6.68,0,0,1-1,1.25c-6.67,5.28-13.74,7.85-22.77,7-7.25-.68-14.84,1.41-22.19,2.72-5.19.92-10.24,2.6-15.35,3.94Z"/><path class="cls-1" d="M394.65,105c-.16-2.4-.31-4.81-.5-7.7-2.56,4.4-1.34,8.5-.32,12.93-4-.09-5.92-2.24-6.38-5.18A47.13,47.13,0,0,1,387,93.69c.9-10,5.18-19,8.52-28.26,3.16-8.75,6.86-17.3,10.37-25.92a25.37,25.37,0,0,1,1.87-3.18c4.67.34,5.52,3.64,5.9,6.9a47.81,47.81,0,0,1-3,23.11c-4.75,12.26-9.32,24.58-14,36.87-.25.65-.53,1.29-.8,1.94Z"/><path class="cls-1" d="M427.16,93.37l-.73,2.55c-5.51-.55-9.65-4-10.57-9.44a21.8,21.8,0,0,1,.21-9.72C419.72,65,426.9,55.64,436.89,48.29l-6.43,8.92.57.42q5.6-5.84,11.2-11.68l1.47.48,1.78,7.73C440.83,60.1,436.4,65,433,70.44c-2.87,4.56-4.77,9.78-6.73,14.85-1.05,2.72-1.09,5.72,1,8.25Z"/><path class="cls-1" d="M609,62.1c.47-3.11.57-6.2,1.42-9.07,2.53-8.56,5.36-17,8.05-25.55,1.77-5.57,3.4-11.18,5.28-16.71A56.68,56.68,0,0,1,627,4.24l2.1,2.2C632.23,5,632.34-.31,637.64,0l-3,4.78c3.13-.54,4.18-5,9-3.56-7.06,3.55-9.12,9.74-11.42,15.51C627,29.79,622.22,43,617.32,56.18,615.34,61.52,615.07,61.81,609,62.1Z"/><path class="cls-1" d="M593,45.4c7.12,5.12,8.28,8.92,5,16.48-3.19,7.32-6.37,14.64-9.51,21.84l-5.45.76c-3-4.65-1.64-9.72.16-14.65,1.18-3.23,3.16-6.17,4.42-9.37C589.58,55.49,591.25,50.4,593,45.4Z"/><path class="cls-1" d="M569.3,46.27l4.13,6.93C568.23,63,563,73,557.69,82.86c-.37.68-1.4,1-2.24,1.57-3.92-2.87-2.9-6.73-2-10a159.69,159.69,0,0,1,5.42-15.49c1.85-4.84,3.93-9.6,6.2-15.12l2.58,5.32C568,48.51,568.51,47.63,569.3,46.27Z"/><path class="cls-1" d="M574.18,59.32l2.5,2.57c0-1.46,0-2.6.05-4.16l3.54-1.45c5,8.85-5.24,25.19-17.8,29l-2.8-2.4a5.89,5.89,0,0,1,.63-1.38c4.33-5.42,8.72-10.76,10.46-17.77C571.15,62.16,572.87,60.94,574.18,59.32Z"/><path class="cls-1" d="M427.26,93.54c.88-1.46,1.47-3.23,2.68-4.33,8.15-7.43,13.56-16.59,17.45-26.76.76-2,1.22-4.09,2-6.84l2.81-.07c-.3-.68,0-.23.1.27,1.12,7.71-1.7,14.51-5.74,20.63-3.47,5.27-7.82,10-12.08,14.7-1.79,2-4.23,3.64-7.33,2.23Z"/><path class="cls-1" d="M615.76,69,612.35,72a82.55,82.55,0,0,1-3.22,8.9c-.48,1-2.26,1.37-3.37,2-3.49-4.54-3.09-7.35,1.81-14.21L615,67.62Z"/><path class="cls-1" d="M554.5,99c-6.08-.77-12.17-1.32-18.6-2.13,7-14.36,15.75-27.35,20.32-42.47-2.54-3.52-2.68-9-9.22-10,.38,2.3.64,3.9,1,6.29l-5.72-4.43-5.89,2.92c-.22-.8-.4-1.41-.67-2.39-1.54,1.14-3.19,1.86-4.09,3.11-4.36,6-8.92,12-12.62,18.41s-2.51,12.64,2.5,17.9c4.43,2.82,7.24-1.21,11.39-3-3,5.09-4.95,8.46-7.6,13-2.57-.1-9-.23-10.62-.25-17.89-.18-35.28,3.42-52.4,8.24-14.07,4-26.62,11.08-38.63,19.21-1.53,1-3.71,2-2.12,5.31l6.64-3.3-8,9.41,1.18.41c.12,1.18.25,2.36.48,4.59,14.63-11.78,30.65-19.94,47.57-26.43a170.28,170.28,0,0,1,52.79-11.43c-8,18-11.17,22.21-26.23,35,.45.31,3.24-.89,3.55-.51s-1.74,2.45-1.58,2.79c17.16-7.32,26.24-22.67,34.41-37,6.34.13,15.42,1,22.78,1.55C554.85,101.63,554.78,100.82,554.5,99ZM538,73.53l-3.1.48c-2.33,2.73-4.6,5.42-7.44,8.77,0-13,10.26-28.68,18.85-29.42C545.33,60.85,540.66,66.7,538,73.53Z"/><path class="cls-1" d="M499,68l10.29,2.15c10.64-5.68,13-12.92,7.57-21.61l-6.13-3.12L504.44,48l3.3-3.75c-14.19,3.67-25.22,22.91-22.19,35.06l5.9,8.43c10,3.8,20.86-2.22,21.26-10.71l-4.26-5.55c-.82,8-3.07,9.35-13.11,15-3.33-10,6.73-29.86,17.7-35-.2,8.58-8.94,10.31-13.31,16.65"/><path class="cls-1" d="M20.85,121.68c-5.46-.14-8.29-2.63-10.75-5.67C1.85,105.77-1,94,.28,81.07,2.06,62.63,9.66,46.7,21.68,32.83A55.37,55.37,0,0,1,46,16.38c9.86-3.29,20.16-3.39,29.77,1.38A17.31,17.31,0,0,1,84.58,39c-3.13,8.8-7.91,16-15.92,20.86-3.27,2-6.81,3.41-11.2,2,3.6-4.43,7-8.55,10.32-12.67L67,48.45l-4.38,4.38c3-11.92,8.82-23.18-1.45-33.73C54.71,20.28,49.24,22.28,43.66,27l4.77-1C20.79,52.84,10.24,84.07,20.85,121.68Z"/><path class="cls-1" d="M257.47,101.68c1.55-2,3.34-5.29,3.08-7.38-.95,1.73-3,4.39-4.85,5,1.65-5.69,3.07-10.58,4.48-15.47l-.7-.41-7.55,8c-4.68-2.81-2.46-6.87-3-10.38-8.3,16.45-10.72,19.38-19.14,22.54l-.08-2.11-7.08,4.82c.58-1.7.59-2.48,1-2.73,6.56-4.45,9.53-11.41,12.68-18.2,3.38-7.28,6.56-14.66,9.77-21.88-.82-1.79-1.49-3.23-2.16-4.68,5.53-2.32,10.62.83,11.24,6.88a55.93,55.93,0,0,1,0,7.66,60.39,60.39,0,0,0-.1,7.28c4.25-6.5,10.7-11.54,12.4-19.65,5.44,2.18,7.44,5.72,6.08,10.85-1.58,6-3.59,11.91-4.67,18C267.76,96.27,263.44,98.85,257.47,101.68Z"/><path class="cls-1" d="M185.2,100.77c2.29-5.83,4.12-10.47,6.12-15.55-9.55,1-10.85.64-13.63,8.52-1.49,4.86-7.69,7.82-12.47,8.87a13.06,13.06,0,0,1,.68-4.81c1.19-3.25,3.81-6.52,5.3-9.63,4.34-9.06,6.21-17.45,9.72-27.47l5.46,3.86L188,69c-1.63,4-3.13,7.7-5,12.43l11.86-2.27c2-5.57,4-11.28,6.18-17.52,2.12,2.25,4.43,4.12,6,6.5,1.87,2.84-.06,5.54-1.27,8.21a107.5,107.5,0,0,0-5.06,12.13C198.9,94,194,98,190.2,99.89,189.28,100.57,187.71,100.37,185.2,100.77Z"/><path class="cls-1" d="M54.3,85.66l2.37-1.41c4.22,9.2,2.33,16.91-4,24C46,115.64,37.25,119.16,28.13,122c-1.1.35-2.51-.27-4.08-1.2a81.33,81.33,0,0,0,17.63-17.71C46.44,96.54,49,88.92,52.23,81.62l1.31.38C53.77,83.11,54,84.23,54.3,85.66Z"/><path class="cls-1" d="M238.21,47.36c4.49,1.64,4.67,6.31.11,9.23-6-.42-12.36.3-19.15-1.07.93-2.14,1.26-1.54,1.88-3C226.51,51.05,232,50.77,238.21,47.36Z"/><path class="cls-1" d="M156.14,77.64C161.32,67.41,166.45,57.29,172,46.3c-2.33-9.76-4.85-20.25-7.58-31.69l-2.75,3.46c-.35-1.38-.68-2.66-1-4-2.19,11.24-10.69,18-16.79,26.32-6.57,9-13,18-19.18,27.23-3.33,5-6,10.37-8.74,15.21l-17.6,4.53c-8.61,9.37-8.69,20.83-11.13,32L92,120c2-2.75,3.88-5.26,5.71-7.78,5.33-7.35,11.55-13.64,20.15-17.14a5.43,5.43,0,0,1,1.85,0l-4.08,3.71c12-2.73,23.7-5.5,36.21-5.82-1.6,8.09-8.67,14-7.16,23.2,4.72-2.43,8.46-4.81,10.76-9.2,3.43-6.52,7.09-12.93,13.16-17.51.64-.48.92-1.45,1.3-2.07C168.83,79.22,160.84,81.2,156.14,77.64Zm-12.51,1.64-11.06,1C141.71,65.2,151.73,52,161.7,38.65l1.31.71Z"/><path class="cls-1" d="M227.19,84.33c10.14-4.48,12.82-10.94,8.42-19.28l-5.4-3.28-5.91,1.94,3.29-3.21c-13.26,2.39-24.68,19.25-22.74,30.6l4.83,8.12c8.91,4.17,17.39-.75,18.34-8.51l-3.52-5.37c-1.3,7.24-1.59,8.51-11.18,13C211,89,221.54,71.48,231.94,67.51c-.77,7.85-8.9,8.83-13.34,14.34Z"/></g></g></svg>