<svg id="Layer_1" data-name="Layer 1" xmlns="http://www.w3.org/2000/svg" viewBox="0 0 595.28 195.63"><defs><style>.cls-1{fill:#fafccd;}</style></defs><path class="cls-1" d="M418.4,121.66h7.85v-.57a8.18,8.18,0,0,1-2.41-.32,3.51,3.51,0,0,1-1.78-1.42l-4.25-7.5a16.84,16.84,0,0,1-3-.41,3.17,3.17,0,0,1-1.43-.59,7.38,7.38,0,0,0,.72-.39,3.82,3.82,0,0,0,1.07-1.07,11.58,11.58,0,0,0,1.09-3.4,10.78,10.78,0,0,1,1-3.12,2.59,2.59,0,0,1,2.42-1.41c.35,0,.52.08.52.21s-.16.17-.49.25c-.9.26-1.34,1-1.34,2.35s.95,2,2.5,2,2.42-.93,2.46-2.64-1.13-2.67-3.39-2.81a3.29,3.29,0,0,0-2.95,1.36,9.07,9.07,0,0,0-1.27,3.68,13.08,13.08,0,0,1-1,3.09,3.15,3.15,0,0,1-1.16,1.17,2.63,2.63,0,0,1-1.17.31h-3.1V106a4.86,4.86,0,0,1,.82-3.13q.82-1,3.45-1v-.57H400.71v.57c1.75,0,2.89.33,3.44,1A4.86,4.86,0,0,1,405,106v11a4.86,4.86,0,0,1-.83,3.13c-.55.66-1.69,1-3.44,1v.57h12.82v-.57c-1.75,0-2.9-.4-3.45-1.21a5.89,5.89,0,0,1-.82-3.35V111h3.39l5.75,10.62Zm25.26-20.76a12.69,12.69,0,0,0-8.73,3.1,9.64,9.64,0,0,0,.07,14.94,12.82,12.82,0,0,0,8.66,3.09,12.69,12.69,0,0,0,8.7-3.09,9.6,9.6,0,0,0,3.51-7.46,9.78,9.78,0,0,0-3.43-7.41,12.46,12.46,0,0,0-8.78-3.17Zm5.06,3.37a12.13,12.13,0,0,1,2,7.21,12.42,12.42,0,0,1-1.9,7.18,5.92,5.92,0,0,1-5.1,2.78,6,6,0,0,1-5-2.78,12.07,12.07,0,0,1-2-7.18,12.41,12.41,0,0,1,1.91-7.21,6,6,0,0,1,10.13,0Zm12.69-3v.57c1.84,0,3,.33,3.59,1a4.93,4.93,0,0,1,.82,3.13v10.37a5.32,5.32,0,0,1-1,3.43,4.12,4.12,0,0,1-3.37,1.28v.57h9.42v-.57a3.89,3.89,0,0,1-3.37-1.43,5.85,5.85,0,0,1-1-3.57V103.57l8.85,18.09h.6l8.75-18V117a4.86,4.86,0,0,1-.82,3.13c-.55.66-1.8,1-3.74,1v.57h13.09v-.57c-1.84,0-3-.33-3.59-1a4.93,4.93,0,0,1-.82-3.13V106a4.93,4.93,0,0,1,.82-3.13c.55-.66,1.75-1,3.59-1v-.57h-8l-7.53,15.52-7.69-15.52Zm57.9,3.66a8.4,8.4,0,0,1,.06,1v11a4.86,4.86,0,0,1-.83,3.13c-.54.66-1.69,1-3.44,1v.57h12.82v-.57q-2.62,0-3.45-1a4.86,4.86,0,0,1-.82-3.13V106a4.86,4.86,0,0,1,.82-3.13q.82-1,3.45-1v-.57H515.1v.57q2.63,0,3.45,1a3.72,3.72,0,0,1,.63,1.31L508.5,118.34a8.23,8.23,0,0,1-.1-1.37V106a4.93,4.93,0,0,1,.82-3.13q.82-1,3.45-1v-.57H499.85v.57q2.63,0,3.45,1a4.93,4.93,0,0,1,.82,3.13v11a4.93,4.93,0,0,1-.82,3.13q-.82,1-3.45,1v.57h12.82v-.57c-1.75,0-2.9-.33-3.44-1a3,3,0,0,1-.54-1L519.31,105Z"/><path class="cls-1" d="M405,86.2a3,3,0,0,1,2,.54,1.88,1.88,0,0,1,.56,1.43v.34a2,2,0,0,1-.53,1.36,3.07,3.07,0,0,1-2.3.61h-1.38V86.2Zm1.22,4.54a4.71,4.71,0,0,0,2.41-.61,1.85,1.85,0,0,0,1-1.65v-.27a1.88,1.88,0,0,0-1-1.58,5.82,5.82,0,0,0-3.21-.66h-5.69v.25a1.9,1.9,0,0,1,1.46.42,2.06,2.06,0,0,1,.35,1.32v4.65a2.06,2.06,0,0,1-.35,1.32,1.9,1.9,0,0,1-1.46.42v.24h5.73v-.25c-1,0-1.57-.14-1.8-.41a2.13,2.13,0,0,1-.33-1.32V90.74Zm11.45.42a3.13,3.13,0,0,1,.77,2.06h.23V87.56h-.23a3.13,3.13,0,0,1-.77,2.06,2.51,2.51,0,0,1-1.88.65V86.2h1.09a5.28,5.28,0,0,1,2.87.59,4.5,4.5,0,0,1,1.39,2.54h.21V86h-9.19v.25a1.9,1.9,0,0,1,1.46.42,2.07,2.07,0,0,1,.34,1.32v4.65a2.07,2.07,0,0,1-.34,1.32,1.9,1.9,0,0,1-1.46.42v.24h9.42V91h-.26a4.57,4.57,0,0,1-1.2,2.4c-.61.62-1.78.93-3.5.93h-.83V90.51a2.51,2.51,0,0,1,1.88.65Zm8.1-4a4.18,4.18,0,0,0,0,6.26,4.86,4.86,0,0,0,3.5,1.38,4,4,0,0,0,2.89-1,4.41,4.41,0,0,0,1.33-2.22h-.26A4.1,4.1,0,0,1,432,93.59a3.64,3.64,0,0,1-2.57.91,2.65,2.65,0,0,1-2-.84c-.53-.56-.8-1.67-.8-3.32a7.41,7.41,0,0,1,.56-3.22A1.93,1.93,0,0,1,429,86a3.65,3.65,0,0,1,2.37,1,6.37,6.37,0,0,1,1.78,3.08h.19l-.17-4.13H433c-.45.6-.82.91-1.08.91a2.43,2.43,0,0,1-1-.53,3.64,3.64,0,0,0-2.13-.52,4.3,4.3,0,0,0-3.06,1.33Zm18.47-.89v6.39a2.07,2.07,0,0,1-.34,1.32,1.9,1.9,0,0,1-1.46.42v.24h5.43v-.24a1.88,1.88,0,0,1-1.46-.42,2.06,2.06,0,0,1-.35-1.32V88a2.06,2.06,0,0,1,.35-1.32,1.88,1.88,0,0,1,1.46-.42V86H436v.25a1.88,1.88,0,0,1,1.46.42,2.06,2.06,0,0,1,.35,1.32v4.65a2.06,2.06,0,0,1-.35,1.32,1.88,1.88,0,0,1-1.46.42v.24h5.43v-.24a1.9,1.9,0,0,1-1.46-.42,2.07,2.07,0,0,1-.34-1.32V86.22Zm10.91,8a1.29,1.29,0,0,1-.66.33.4.4,0,0,1-.2,0,.11.11,0,0,1-.08-.1.11.11,0,0,1,.05-.1,1.05,1.05,0,0,0,.37-.25.88.88,0,0,0,.18-.57,1.07,1.07,0,0,0-.28-.77,1.06,1.06,0,0,0-.82-.3.85.85,0,0,0-.72.32,1.35,1.35,0,0,0-.27.83,1.23,1.23,0,0,0,.37.92,1.7,1.7,0,0,0,1.2.34,1.44,1.44,0,0,0,1-.36,3.66,3.66,0,0,0,.77-1.21l2.45-5.28a4.07,4.07,0,0,1,.86-1.2,1.65,1.65,0,0,1,1.17-.52V86h-3.47v.25a1.43,1.43,0,0,1,.84.28.92.92,0,0,1,.4.8,1.16,1.16,0,0,1-.11.61L456.73,91l-2.29-3.12a5.77,5.77,0,0,1-.44-.64,1.06,1.06,0,0,1-.15-.52.49.49,0,0,1,.31-.4,3,3,0,0,1,1.15-.14V86h-5.25v.25a2,2,0,0,1,1.1.3,3.22,3.22,0,0,1,.85.84l3.86,5.55a4.17,4.17,0,0,1-.74,1.27Zm11.26-8h1.09a5.25,5.25,0,0,1,2.87.59,4.5,4.5,0,0,1,1.39,2.54H472V86h-9.21v.25a1.88,1.88,0,0,1,1.46.42,2,2,0,0,1,.35,1.32v4.65a2,2,0,0,1-.35,1.32,1.88,1.88,0,0,1-1.46.42v.24h6.55a5.25,5.25,0,0,0,2.42-.55,1.77,1.77,0,0,0,1.08-1.64,2,2,0,0,0-1.06-1.71,6.69,6.69,0,0,0-3.34-.73h-2V86.2Zm0,4h1.45a3.55,3.55,0,0,1,2.11.53,1.76,1.76,0,0,1,.72,1.5,1.94,1.94,0,0,1-.66,1.58,2.75,2.75,0,0,1-1.79.54h-1.83V90.21Zm10.37,4.3a.27.27,0,0,1-.14,0,.11.11,0,0,1-.08-.1.13.13,0,0,1,0-.1A.9.9,0,0,0,477,94a.83.83,0,0,0,.19-.57,1.27,1.27,0,0,0-.28-.86,1.32,1.32,0,0,0-1.7,0,1.22,1.22,0,0,0-.3.86,1.31,1.31,0,0,0,.43,1,1.82,1.82,0,0,0,1.27.38,1.8,1.8,0,0,0,1.6-1.22,54.75,54.75,0,0,0,2-5.67,3.48,3.48,0,0,1,.72-1.29,2.74,2.74,0,0,1,1.77-.39v6.39a2.06,2.06,0,0,1-.35,1.32,1.88,1.88,0,0,1-1.46.42v.24h5.43v-.24a1.9,1.9,0,0,1-1.46-.42,2.07,2.07,0,0,1-.34-1.32V88a2.07,2.07,0,0,1,.34-1.32,1.9,1.9,0,0,1,1.46-.42V86h-7.94v.25a2.19,2.19,0,0,1,1.24.3.91.91,0,0,1,.45.66,1,1,0,0,1,0,.18,2.72,2.72,0,0,1-.07.28,50,50,0,0,1-2,5.71c-.38.75-.78,1.13-1.21,1.16Zm20.92-7a3.17,3.17,0,0,1,0,.44v4.65a2.07,2.07,0,0,1-.34,1.32,1.91,1.91,0,0,1-1.47.42v.24h5.44v-.24a1.88,1.88,0,0,1-1.46-.42,2.06,2.06,0,0,1-.35-1.32V88a2.06,2.06,0,0,1,.35-1.32,1.88,1.88,0,0,1,1.46-.42V86h-5.44v.25a1.91,1.91,0,0,1,1.47.42,1.48,1.48,0,0,1,.26.55l-4.52,6a3.52,3.52,0,0,1,0-.58V88a2.07,2.07,0,0,1,.34-1.32,1.9,1.9,0,0,1,1.46-.42V86h-5.43v.25a1.88,1.88,0,0,1,1.46.42,2.06,2.06,0,0,1,.35,1.32v4.65a2.06,2.06,0,0,1-.35,1.32,1.88,1.88,0,0,1-1.46.42v.24h5.43v-.24a1.86,1.86,0,0,1-1.45-.42,1.06,1.06,0,0,1-.23-.42l4.5-6ZM512,94.59h3.32v-.24a3.46,3.46,0,0,1-1-.13,1.42,1.42,0,0,1-.75-.6l-1.81-3.18a6.66,6.66,0,0,1-1.28-.18,1.32,1.32,0,0,1-.61-.25l.31-.16a1.58,1.58,0,0,0,.45-.45A5.12,5.12,0,0,0,511,88a4.55,4.55,0,0,1,.41-1.32,1.09,1.09,0,0,1,1-.6c.15,0,.23,0,.23.09s-.07.08-.21.11q-.57.17-.57,1c0,.57.4.85,1.06.85A1,1,0,0,0,514,87c0-.74-.47-1.14-1.43-1.19a1.39,1.39,0,0,0-1.25.57,3.86,3.86,0,0,0-.54,1.56,5.31,5.31,0,0,1-.42,1.31,1.38,1.38,0,0,1-.49.5,1.1,1.1,0,0,1-.5.13h-1.31V88a2.06,2.06,0,0,1,.35-1.32,1.88,1.88,0,0,1,1.46-.42V86h-5.44v.25a1.87,1.87,0,0,1,1.46.42,2,2,0,0,1,.35,1.32v4.65a2,2,0,0,1-.35,1.32,1.87,1.87,0,0,1-1.46.42v.24h5.44v-.24a1.67,1.67,0,0,1-1.46-.51,2.5,2.5,0,0,1-.35-1.42V90.09h1.44l2.44,4.5Zm11.34-3.43a3.18,3.18,0,0,1,.77,2.06h.23V87.56h-.23a3.18,3.18,0,0,1-.77,2.06,2.52,2.52,0,0,1-1.89.65V86.2h1.1a5.21,5.21,0,0,1,2.86.59,4.5,4.5,0,0,1,1.4,2.54H527V86h-9.2v.25a1.88,1.88,0,0,1,1.46.42,2,2,0,0,1,.35,1.32v4.65a2,2,0,0,1-.35,1.32,1.88,1.88,0,0,1-1.46.42v.24h9.42V91h-.25a4.51,4.51,0,0,1-1.21,2.4c-.61.62-1.77.93-3.49.93h-.84V90.51a2.52,2.52,0,0,1,1.89.65Z"/><path class="cls-1" d="M86.43,106.38h7.85v-.57a7.93,7.93,0,0,1-2.42-.32,3.43,3.43,0,0,1-1.78-1.41l-4.25-7.5a17.55,17.55,0,0,1-3-.42,3,3,0,0,1-1.44-.59,5.91,5.91,0,0,0,.73-.38,4.11,4.11,0,0,0,1.07-1.07,12,12,0,0,0,1.09-3.41,11,11,0,0,1,1-3.12,2.6,2.6,0,0,1,2.42-1.41c.35,0,.53.08.53.22s-.17.17-.5.25c-.89.26-1.34,1-1.34,2.34s1,2,2.51,2,2.42-.93,2.46-2.63-1.13-2.68-3.4-2.82a3.29,3.29,0,0,0-3,1.37,9.17,9.17,0,0,0-1.27,3.67,12.36,12.36,0,0,1-1,3.09,3,3,0,0,1-1.16,1.17,2.65,2.65,0,0,1-1.17.32h-3.1V90.74a4.84,4.84,0,0,1,.83-3.13c.54-.66,1.69-1,3.44-1v-.57H68.73v.57q2.63,0,3.45,1A4.85,4.85,0,0,1,73,90.74v11a4.85,4.85,0,0,1-.82,3.13q-.83,1-3.45,1v.57H81.55v-.57c-1.75,0-2.9-.4-3.44-1.21a5.86,5.86,0,0,1-.83-3.35V95.76h3.4l5.75,10.62Zm25.25-20.75A12.71,12.71,0,0,0,103,88.72a9.64,9.64,0,0,0-3.51,7.48,9.52,9.52,0,0,0,3.58,7.46,13.7,13.7,0,0,0,17.36,0,9.6,9.6,0,0,0,3.51-7.46,9.82,9.82,0,0,0-3.44-7.41,12.45,12.45,0,0,0-8.78-3.16ZM116.75,89a12.12,12.12,0,0,1,2,7.2,12.46,12.46,0,0,1-1.91,7.19,5.89,5.89,0,0,1-5.1,2.77,6,6,0,0,1-5-2.77,12.11,12.11,0,0,1-2-7.19,12.47,12.47,0,0,1,1.91-7.2,6,6,0,0,1,10.14,0Zm12.68-3v.57c1.84,0,3,.33,3.59,1a4.85,4.85,0,0,1,.82,3.13v10.37a5.27,5.27,0,0,1-1,3.42,4.08,4.08,0,0,1-3.37,1.28v.57h9.42v-.57a3.89,3.89,0,0,1-3.37-1.42,6,6,0,0,1-1-3.57V88.29l8.85,18.09h.6l8.75-18v13.35a4.85,4.85,0,0,1-.82,3.13c-.55.66-1.79,1-3.73,1v.57h13.09v-.57c-1.85,0-3-.33-3.59-1a4.85,4.85,0,0,1-.82-3.13v-11a4.85,4.85,0,0,1,.82-3.13c.55-.66,1.74-1,3.59-1v-.57h-8l-7.53,15.51-7.69-15.51Zm57.9,3.65a8.45,8.45,0,0,1,.06,1v11a4.85,4.85,0,0,1-.82,3.13q-.82,1-3.45,1v.57h12.82v-.57c-1.75,0-2.9-.33-3.44-1a4.84,4.84,0,0,1-.83-3.13v-11a4.84,4.84,0,0,1,.83-3.13c.54-.66,1.69-1,3.44-1v-.57H183.12v.57c1.75,0,2.9.33,3.46,1a3.47,3.47,0,0,1,.62,1.31l-10.67,14.14a8.09,8.09,0,0,1-.11-1.37v-11a4.84,4.84,0,0,1,.83-3.13c.55-.66,1.69-1,3.44-1v-.57H167.88v.57c1.74,0,2.89.33,3.44,1a4.85,4.85,0,0,1,.82,3.13v11a4.85,4.85,0,0,1-.82,3.13c-.55.66-1.7,1-3.44,1v.57h12.81v-.57c-1.75,0-2.89-.33-3.44-1a2.73,2.73,0,0,1-.53-1L187.33,89.7Z"/><path class="cls-1" d="M73,114.27a2.65,2.65,0,0,1,1.8.47,1.68,1.68,0,0,1,.5,1.26v.3a1.76,1.76,0,0,1-.47,1.2,2.71,2.71,0,0,1-2,.54H71.57v-3.77Zm1.07,4a4.14,4.14,0,0,0,2.12-.53,1.64,1.64,0,0,0,.91-1.45V116a1.65,1.65,0,0,0-.84-1.39,5.13,5.13,0,0,0-2.83-.58h-5v.22a1.71,1.71,0,0,1,1.29.36,1.86,1.86,0,0,1,.3,1.17v4.09a1.81,1.81,0,0,1-.3,1.16,1.67,1.67,0,0,1-1.29.37v.22h5v-.23c-.85,0-1.37-.12-1.57-.36a1.81,1.81,0,0,1-.3-1.16v-1.65Zm9,.37a2.8,2.8,0,0,1,.67,1.82h.2v-5h-.2a2.78,2.78,0,0,1-.67,1.82,2.28,2.28,0,0,1-1.66.57v-3.58h1a4.55,4.55,0,0,1,2.52.52A3.92,3.92,0,0,1,86.07,117h.18v-3H78.16v.22a1.71,1.71,0,0,1,1.29.36,1.86,1.86,0,0,1,.3,1.17v4.09a1.81,1.81,0,0,1-.3,1.16,1.67,1.67,0,0,1-1.29.37v.22h8.29v-3.14h-.22a4.11,4.11,0,0,1-1.06,2.11,4.34,4.34,0,0,1-3.08.82h-.73v-3.39a2.28,2.28,0,0,1,1.66.57Zm6-3.55a3.67,3.67,0,0,0,0,5.5,4.24,4.24,0,0,0,3.07,1.22,3.57,3.57,0,0,0,2.55-.89,3.77,3.77,0,0,0,1.16-2h-.22a3.7,3.7,0,0,1-1.13,1.82,3.23,3.23,0,0,1-2.26.79,2.32,2.32,0,0,1-1.77-.73,4.4,4.4,0,0,1-.7-2.93,6.45,6.45,0,0,1,.49-2.83,1.71,1.71,0,0,1,1.66-1A3.13,3.13,0,0,1,94,115a5.61,5.61,0,0,1,1.58,2.71h.17L95.59,114h-.2c-.4.54-.72.8-1,.8a2.12,2.12,0,0,1-.85-.46,3.17,3.17,0,0,0-1.87-.46A3.78,3.78,0,0,0,89,115.08Zm15.14-.79v5.62a1.75,1.75,0,0,1-.31,1.16,1.63,1.63,0,0,1-1.28.37v.22h4.78v-.22a1.67,1.67,0,0,1-1.29-.37,1.81,1.81,0,0,1-.3-1.16v-4.09a1.86,1.86,0,0,1,.3-1.17,1.71,1.71,0,0,1,1.29-.36v-.22H96.89v.22a1.71,1.71,0,0,1,1.29.36,1.86,1.86,0,0,1,.3,1.17v4.09a1.81,1.81,0,0,1-.3,1.16,1.67,1.67,0,0,1-1.29.37v.22h4.78v-.22a1.63,1.63,0,0,1-1.28-.37,1.75,1.75,0,0,1-.31-1.16v-5.62Zm8.48,7a1,1,0,0,1-.58.29.4.4,0,0,1-.17,0,.1.1,0,0,1-.07-.1s0-.07,0-.08a.92.92,0,0,0,.32-.22.74.74,0,0,0,.17-.5,1,1,0,0,0-.25-.68,1,1,0,0,0-.72-.26.75.75,0,0,0-.64.28,1.27,1.27,0,0,0-.24.73,1.15,1.15,0,0,0,.33.81,1.51,1.51,0,0,0,1.06.3,1.25,1.25,0,0,0,.9-.32,3.17,3.17,0,0,0,.68-1.06l2.15-4.64a3.49,3.49,0,0,1,.76-1.06,1.45,1.45,0,0,1,1-.46v-.22h-3v.22a1.27,1.27,0,0,1,.74.25.82.82,0,0,1,.35.7,1.05,1.05,0,0,1-.1.54l-1.3,2.75-2-2.75a4.16,4.16,0,0,1-.39-.56.94.94,0,0,1-.14-.46.46.46,0,0,1,.28-.35,2.81,2.81,0,0,1,1-.12v-.22H108.2v.22a1.78,1.78,0,0,1,1,.27,2.73,2.73,0,0,1,.75.73l3.39,4.88a3.31,3.31,0,0,1-.65,1.12Zm8.79-7h1a4.55,4.55,0,0,1,2.52.52,3.92,3.92,0,0,1,1.22,2.23h.19v-3h-8.1v.22a1.67,1.67,0,0,1,1.28.36,1.8,1.8,0,0,1,.31,1.17v4.09a1.75,1.75,0,0,1-.31,1.16,1.63,1.63,0,0,1-1.28.37v.22H124a4.66,4.66,0,0,0,2.12-.49,1.56,1.56,0,0,0,1-1.44,1.74,1.74,0,0,0-.94-1.51,5.81,5.81,0,0,0-2.93-.64h-1.77v-3.31Zm0,3.53h1.28a3,3,0,0,1,1.86.47,1.54,1.54,0,0,1,.63,1.31,1.69,1.69,0,0,1-.58,1.39,2.39,2.39,0,0,1-1.57.48h-1.62V117.8Zm8,3.78-.13,0a.1.1,0,0,1-.06-.1s0-.07,0-.08a.87.87,0,0,0,.33-.22.7.7,0,0,0,.16-.5,1.12,1.12,0,0,0-.25-.76,1,1,0,0,0-.77-.29,1,1,0,0,0-.72.25,1.24,1.24,0,0,0,.12,1.65,1.62,1.62,0,0,0,1.11.33,1.57,1.57,0,0,0,1.41-1.07,50.74,50.74,0,0,0,1.8-5,2.87,2.87,0,0,1,.63-1.13,2.33,2.33,0,0,1,1.56-.35v5.62a1.81,1.81,0,0,1-.31,1.16,1.65,1.65,0,0,1-1.29.37v.22h4.78v-.22a1.63,1.63,0,0,1-1.28-.37,1.81,1.81,0,0,1-.31-1.16v-4.09a1.86,1.86,0,0,1,.31-1.17,1.67,1.67,0,0,1,1.28-.36v-.22h-7v.22a1.87,1.87,0,0,1,1.09.27.78.78,0,0,1,.4.57.76.76,0,0,1,0,.16l-.06.25a41.75,41.75,0,0,1-1.77,5c-.33.66-.69,1-1.06,1Zm17.29-6.14c0,.12,0,.24,0,.38v4.09a1.81,1.81,0,0,1-.3,1.16,1.67,1.67,0,0,1-1.29.37v.22H150v-.22a1.63,1.63,0,0,1-1.28-.37,1.75,1.75,0,0,1-.31-1.16v-4.09a1.8,1.8,0,0,1,.31-1.17,1.67,1.67,0,0,1,1.28-.36v-.22h-4.78v.22a1.71,1.71,0,0,1,1.29.36,1.31,1.31,0,0,1,.23.49l-4,5.28a3.77,3.77,0,0,1,0-.51v-4.09a1.8,1.8,0,0,1,.31-1.17,1.67,1.67,0,0,1,1.28-.36v-.22h-4.78v.22a1.7,1.7,0,0,1,1.29.36,1.86,1.86,0,0,1,.31,1.17v4.09a1.81,1.81,0,0,1-.31,1.16,1.65,1.65,0,0,1-1.29.37v.22h4.78v-.22a1.63,1.63,0,0,1-1.28-.37,1,1,0,0,1-.2-.37l4-5.26Zm11.44,6.22h2.93v-.22a3,3,0,0,1-.9-.12,1.27,1.27,0,0,1-.67-.52L158,118a7.07,7.07,0,0,1-1.13-.15,1.17,1.17,0,0,1-.53-.22l.26-.15a1.25,1.25,0,0,0,.4-.4,4.19,4.19,0,0,0,.41-1.27,4,4,0,0,1,.36-1.16,1,1,0,0,1,.91-.53c.13,0,.19,0,.19.08s-.06.07-.18.1c-.34.09-.5.39-.5.87s.35.75.93.75a.87.87,0,0,0,.92-1c0-.65-.42-1-1.27-1a1.24,1.24,0,0,0-1.1.51,3.43,3.43,0,0,0-.47,1.37,4.88,4.88,0,0,1-.36,1.15,1.23,1.23,0,0,1-.44.44,1.05,1.05,0,0,1-.43.11h-1.16v-1.65a1.8,1.8,0,0,1,.31-1.17,1.67,1.67,0,0,1,1.28-.36v-.22h-4.78v.22a1.67,1.67,0,0,1,1.28.36,1.8,1.8,0,0,1,.31,1.17v4.09a1.75,1.75,0,0,1-.31,1.16,1.63,1.63,0,0,1-1.28.37v.22h4.78v-.22a1.46,1.46,0,0,1-1.28-.45,2.14,2.14,0,0,1-.31-1.25v-2H156l2.15,4Zm7.31-5.92,1.49,3.34h-3l1.49-3.34Zm-1.66,3.13c-.65,1.72-1.43,2.57-2.31,2.57v.22h3.11v-.22a1.14,1.14,0,0,1-.73-.23,1,1,0,0,1-.36-.74,1.18,1.18,0,0,1,.06-.44l.33-.75h3.16a7.49,7.49,0,0,1,.67,1.66.41.41,0,0,1-.23.38,3.37,3.37,0,0,1-1.17.12v.22h4.41v-.22a2.37,2.37,0,0,1-.76-.12,1,1,0,0,1-.57-.52l-3.18-6.87H166l-2.19,4.94Zm8.74,2.71-.12,0a.11.11,0,0,1-.07-.1.09.09,0,0,1,0-.08.87.87,0,0,0,.33-.22.74.74,0,0,0,.16-.5,1.12,1.12,0,0,0-.25-.76,1,1,0,0,0-.77-.29,1,1,0,0,0-.72.25,1.14,1.14,0,0,0-.26.76,1.16,1.16,0,0,0,.37.89,1.65,1.65,0,0,0,1.12.33,1.58,1.58,0,0,0,1.41-1.07c.35-.72.94-2.38,1.8-5a2.87,2.87,0,0,1,.63-1.13,2.32,2.32,0,0,1,1.55-.35v5.62a1.81,1.81,0,0,1-.3,1.16,1.65,1.65,0,0,1-1.29.37v.22H181v-.22a1.63,1.63,0,0,1-1.28-.37,1.75,1.75,0,0,1-.31-1.16v-4.09a1.8,1.8,0,0,1,.31-1.17,1.67,1.67,0,0,1,1.28-.36v-.22h-7v.22a1.87,1.87,0,0,1,1.09.27.78.78,0,0,1,.4.57.76.76,0,0,1,0,.16l-.06.25a41.75,41.75,0,0,1-1.77,5c-.33.66-.69,1-1.07,1Zm12.94-.13v-3.76h1.22a2.7,2.7,0,0,1,2,.54,1.76,1.76,0,0,1,.47,1.2v.3a1.64,1.64,0,0,1-.5,1.25,2.59,2.59,0,0,1-1.8.47Zm0-4v-1.65a1.81,1.81,0,0,1,.3-1.16c.2-.24.72-.36,1.57-.36v-.23h-5v.22a1.71,1.71,0,0,1,1.29.36,1.86,1.86,0,0,1,.3,1.17v4.09a1.81,1.81,0,0,1-.3,1.16,1.67,1.67,0,0,1-1.29.37v.22h5a5.2,5.2,0,0,0,2.82-.58,1.65,1.65,0,0,0,.84-1.39v-.24a1.63,1.63,0,0,0-.91-1.45,4.14,4.14,0,0,0-2.12-.53Zm7,2.44a1.75,1.75,0,0,1-.31,1.16,1.63,1.63,0,0,1-1.28.37v.22h4.78v-.22a1.65,1.65,0,0,1-1.29-.37,1.81,1.81,0,0,1-.3-1.16v-4.09a1.86,1.86,0,0,1,.3-1.17,1.7,1.7,0,0,1,1.29-.36v-.22H191v.22a1.67,1.67,0,0,1,1.28.36,1.8,1.8,0,0,1,.31,1.17v4.09Z"/><path class="cls-1" d="M296.91,45.7c-24.6-3.24-39.86,22.78-43.37,49.44-3.28,24.9,3.71,50.39,22.9,52.62,21.54,2.54,37.47-26.24,41-53,2.77-21.06-2.26-40.91-18.46-43a25.85,25.85,0,0,0-5.7,0c-2.56.11-4.4,2.72-4.63,4.48-.14,1,.2,1.83,1.38,2l.74.1a10.87,10.87,0,0,1,3,0c11.64,1.53,15,21.9,12.26,42.37-2.93,22.25-12.9,44.46-26.64,43C266.56,142,263.16,121.13,266,99.33c3.33-25.33,15.06-51.81,29.57-50.5,2.23.14,3.38-.61,3.5-1.49s-.57-1.42-2.19-1.64Z"/><path class="cls-1" d="M242.06,164.39c-5.94-.78-5.63-21.25-2.41-45.65a449.09,449.09,0,0,1,10.57-54.09c2.15-8.14,4.28-16.06,7.06-24.11a21.05,21.05,0,0,0,1.31-5c.84-6.37-1.25-11.83-5.71-12.41-1.69-.23-6.75,2.13-11.6,4.51a5.15,5.15,0,0,0-2.89,3.94,4.67,4.67,0,0,0,.48,2.87C232,47.56,213,62.33,203.57,66.49c-1.15.5-1.66,1.08-1.74,1.72-.2,1.48,1.76,3,3.67,3.29a3.16,3.16,0,0,0,1.51,0c11.28-3.7,23.39-12,32.53-20.76-.51,3.82-1.28,8-2,12.25-5.46,26.7-12.1,52.59-16.71,79.4l-.73,5.52c-1.9,14.43-.3,22,3.73,22.51s17.34-.52,18.28-6Z"/><path class="cls-1" d="M366.43,43.4c-24.6-3.24-39.86,22.78-43.37,49.44-3.28,24.89,3.7,50.39,22.89,52.62,21.55,2.53,37.48-26.24,41-53.05,2.77-21.07-2.26-40.91-18.47-43a25.16,25.16,0,0,0-5.69,0c-2.56.11-4.4,2.71-4.64,4.48-.13,1,.21,1.83,1.39,2l.74.1a10.87,10.87,0,0,1,3,0c11.64,1.53,14.95,21.9,12.26,42.37-2.93,22.24-12.9,44.46-26.64,42.95-12.83-1.54-16.24-22.37-13.37-44.17,3.34-25.34,15.07-51.82,29.58-50.5,2.23.14,3.38-.61,3.5-1.49s-.57-1.43-2.19-1.64Z"/><path class="cls-1" d="M131.31,142.84l-1.61,1.6-1.82-1.82-1,1,1.81,1.82L127.12,147l-1.8-1.8-1,1L126.1,148l-1.85,1.86,1,1,1.85-1.85,1.61,1.61-1.82,1.82,1,1,1.83-1.83,1.56,1.57-1.81,1.81,1,1,1.82-1.81,1.82,1.83,1-1-1.83-1.82,1.55-1.56,1.82,1.82,1-1L136,150.69l1.6-1.61,1.85,1.85,1-1-1.85-1.85,1.84-1.84-1-1L137.55,147,136,145.47l1.84-1.84-1-1L135,144.45l-1.61-1.61L135.2,141l-1-1-1.84,1.84L130.49,140l-1,1,1.83,1.84Zm1,1,4.2,4.2h0l-1.61,1.6-1,1-1.55,1.55h0l-4.19-4.19h0l1.55-1.55,1-1,1.6-1.61Z"/><path class="cls-1" d="M134.17,156.65l-1.82-1.83-1.82,1.81L129,155.08l1.81-1.81-1-1-1.83,1.83-1.55-1.56,1.82-1.82-1.08-1.08-1.85,1.85-1.55-1.55,1.85-1.86-1.79-1.79,1.54-1.56,1.8,1.8,1-1-1.81-1.81,1.54-1.57,1.82,1.82,1.08-1.07L129,141l1.54-1.56,1.84,1.84,1.84-1.84,1.56,1.55-1.84,1.85,1.08,1.08,1.84-1.85,1.55,1.56-1.84,1.84,1,1,1.84-1.84,1.56,1.56-1.84,1.84,1.85,1.85-1.56,1.55-1.85-1.85-1.07,1.08,1.81,1.81-1.55,1.56-1.82-1.82-1,1,1.83,1.82Zm-1.82-2.89,1.82,1.83.5-.5-1.83-1.82,2.08-2.09,1.82,1.82.49-.5-1.81-1.81,2.13-2.14,1.85,1.85.5-.49-1.85-1.85,1.84-1.84-.5-.5-1.84,1.84-2.09-2.09,1.84-1.84-.49-.49L135,145l-2.14-2.14,1.84-1.85-.5-.49-1.84,1.84-1.84-1.84-.49.5,1.84,1.84L129.7,145l-1.82-1.82-.49.5,1.82,1.82-2.09,2.08-1.79-1.8-.49.5,1.79,1.79-1.85,1.86.49.49,1.85-1.85,2.14,2.14-1.82,1.82.49.5,1.83-1.83,2.09,2.1L130,155.08l.49.49Zm0-1-.27-.26-4.47-4.46,4.72-4.72.28.25,4.45,4.45-.24.27Zm-3.67-4.72,3.66,3.66,3.67-3.66-3.67-3.67Z"/><path class="cls-1" d="M131.31,53.84l-1.61,1.6-1.82-1.82-1,1,1.81,1.81L127.12,58l-1.8-1.8-1,1,1.79,1.8-1.85,1.85,1,1,1.85-1.85,1.61,1.61-1.82,1.83,1,1,1.83-1.83,1.56,1.57-1.81,1.81,1,1,1.82-1.81,1.82,1.83,1-1-1.83-1.82,1.55-1.56,1.82,1.82,1-1L136,61.69l1.6-1.61,1.85,1.85,1-1-1.85-1.85,1.84-1.84-1-1L137.55,58,136,56.47l1.84-1.84-1-1L135,55.45l-1.61-1.61L135.2,52l-1-1-1.84,1.84L130.49,51l-1,1,1.83,1.83Zm1,1,4.2,4.2h0l-1.61,1.61-1,1-1.55,1.55h0l-4.19-4.2h0l1.55-1.56,1-1,1.6-1.61Z"/><path class="cls-1" d="M134.17,67.65l-1.82-1.83-1.82,1.81L129,66.08l1.81-1.81-1-1-1.83,1.83-1.55-1.55,1.82-1.83-1.08-1.08-1.85,1.85-1.55-1.55,1.85-1.85-1.79-1.79,1.54-1.57,1.8,1.8,1-1-1.81-1.81,1.54-1.57,1.82,1.82,1.08-1.07L129,52l1.54-1.57,1.84,1.84,1.84-1.84L135.73,52l-1.84,1.84L135,54.92l1.84-1.84,1.55,1.55-1.84,1.84,1,1,1.84-1.83L141,57.22l-1.84,1.84L141,60.91l-1.56,1.55-1.85-1.85-1.07,1.08,1.81,1.82-1.55,1.55-1.82-1.82-1,1,1.83,1.82Zm-1.82-2.89,1.82,1.83.5-.5-1.83-1.82,2.08-2.09L136.74,64l.49-.49-1.81-1.82,2.13-2.14,1.85,1.85.5-.49-1.85-1.85,1.84-1.84-.5-.49-1.84,1.84-2.09-2.1,1.84-1.84-.49-.49L135,56l-2.14-2.14L134.67,52l-.5-.5-1.84,1.84-1.84-1.83L130,52l1.84,1.84L129.7,56l-1.82-1.81-.49.49,1.82,1.82-2.09,2.08-1.79-1.8-.49.5,1.79,1.8-1.85,1.85.49.49,1.85-1.85,2.14,2.14-1.82,1.83.49.49,1.83-1.83,2.09,2.1L130,66.08l.49.49Zm0-1-4.74-4.72,4.72-4.72.28.25L137.06,59l-.24.26Zm-3.67-4.72,3.66,3.67L136,59.05l-3.67-3.67Z"/><path class="cls-1" d="M463.28,142.84l-1.6,1.6-1.82-1.82-1,1,1.81,1.82L459.1,147l-1.8-1.8-1,1,1.8,1.79-1.86,1.86,1,1,1.85-1.85,1.61,1.61-1.82,1.82,1,1,1.82-1.83,1.57,1.57-1.81,1.81,1,1,1.81-1.81,1.83,1.83,1-1-1.82-1.82,1.55-1.56,1.82,1.82,1-1-1.82-1.81,1.61-1.61,1.85,1.85,1-1-1.85-1.85,1.84-1.84-1-1L469.53,147,468,145.47l1.84-1.84-1-1-1.84,1.84-1.61-1.61,1.84-1.85-1-1-1.84,1.84L462.47,140l-1,1,1.83,1.84Zm1,1,4.2,4.2h0l-1.61,1.6-1,1-1.56,1.55h0l-4.2-4.19h0l1.56-1.55,1-1,1.61-1.61Z"/><path class="cls-1" d="M466.15,156.65l-1.83-1.83-1.81,1.81L461,155.08l1.81-1.81-1-1-1.82,1.83-1.55-1.56,1.82-1.82-1.08-1.08-1.85,1.85-1.56-1.55,1.86-1.86-1.8-1.79,1.55-1.56,1.8,1.8,1-1-1.81-1.81,1.55-1.57,1.82,1.82,1.07-1.07L460.92,141l1.55-1.56,1.84,1.84,1.84-1.84L467.7,141l-1.84,1.85,1.08,1.08,1.84-1.85,1.56,1.56-1.84,1.84,1,1,1.84-1.84,1.55,1.56-1.84,1.84,1.85,1.85-1.55,1.55-1.85-1.85-1.08,1.08,1.82,1.81-1.55,1.56-1.82-1.82-1,1,1.82,1.82Zm-1.83-2.89,1.83,1.83.49-.5-1.82-1.82,2.08-2.09,1.82,1.82.49-.5-1.82-1.81,2.14-2.14,1.85,1.85.49-.49L470,148.06l1.84-1.84-.49-.5-1.84,1.84-2.09-2.09,1.84-1.84-.5-.49L466.94,145l-2.14-2.14,1.84-1.85-.49-.49-1.84,1.84-1.84-1.84-.49.5,1.84,1.84L461.68,145l-1.82-1.82-.49.5,1.81,1.82-2.08,2.08-1.8-1.8-.49.5,1.8,1.79-1.86,1.86.5.49,1.85-1.85,2.14,2.14-1.82,1.82.49.5,1.82-1.83,2.1,2.1L462,155.08l.49.49Zm0-1-.27-.26-4.46-4.46,4.72-4.72.27.25,4.47,4.47Zm-3.67-4.72,3.67,3.66,3.67-3.66-3.67-3.67Z"/><path class="cls-1" d="M463.28,53.84l-1.6,1.6-1.82-1.82-1,1,1.81,1.81L459.1,58l-1.8-1.8-1,1,1.8,1.8-1.86,1.85,1,1,1.85-1.85,1.61,1.61-1.82,1.83,1,1,1.82-1.83,1.57,1.57-1.81,1.81,1,1,1.81-1.81,1.83,1.83,1-1-1.82-1.82,1.55-1.56,1.82,1.82,1-1-1.82-1.82,1.61-1.61,1.85,1.85,1-1-1.85-1.85,1.84-1.84-1-1L469.53,58,468,56.47l1.84-1.84-1-1-1.84,1.84-1.61-1.61L467.17,52l-1-1-1.84,1.84L462.47,51l-1,1,1.83,1.83Zm1,1,4.2,4.2h0l-1.61,1.61-1,1-1.56,1.55h0l-4.2-4.2h0l1.56-1.56,1-1,1.61-1.61Z"/><path class="cls-1" d="M466.15,67.65l-1.83-1.83-1.81,1.81L461,66.08l1.81-1.81-1-1-1.82,1.83-1.55-1.55,1.82-1.83L459.1,60.6l-1.85,1.85-1.56-1.55,1.86-1.85-1.8-1.79,1.55-1.57,1.8,1.8,1-1-1.81-1.81,1.55-1.57,1.82,1.82,1.07-1.07L460.92,52l1.55-1.57,1.84,1.84,1.84-1.84L467.7,52l-1.84,1.84,1.08,1.08,1.84-1.84,1.56,1.55-1.84,1.84,1,1,1.84-1.83,1.55,1.55-1.84,1.84,1.85,1.85-1.55,1.55-1.85-1.85-1.08,1.08,1.82,1.82-1.55,1.55-1.82-1.82-1,1,1.82,1.82Zm-1.83-2.89,1.83,1.83.49-.5-1.82-1.82,2.08-2.09L468.72,64l.49-.49-1.82-1.82,2.14-2.14,1.85,1.85.49-.49L470,59.06l1.84-1.84-.49-.49-1.84,1.84-2.09-2.1,1.84-1.84-.5-.49L466.94,56l-2.14-2.14L466.64,52l-.49-.5-1.84,1.84-1.84-1.83L462,52l1.84,1.84L461.68,56l-1.82-1.81-.49.49,1.81,1.82-2.08,2.08-1.8-1.8-.49.5,1.8,1.8-1.86,1.85.5.49,1.85-1.85,2.14,2.14-1.82,1.83.49.49,1.82-1.83,2.1,2.1L462,66.08l.49.49Zm0-1-.27-.26-4.46-4.46,4.72-4.72.27.25,4.47,4.47Zm-3.67-4.72,3.67,3.67L468,59.05l-3.67-3.67Z"/></svg>